<svg width="150" height="158" fill="none" xmlns="http://www.w3.org/2000/svg">
  <path d="M124.235 22.247c-4.755-2.751-10.022-3.889-17.232-3.77l-2.783.06c-1.033 0-2.162.057-2.993-.418-.518-.3-.518-.779-.524-1.494l-.034-5.621c-.01-1.674-.946-2.928-3.015-4.125L88.76 1.736C86.691.54 84.526 0 81.64 0H64.733c-3.092 0-5.151.599-7.204 1.796L6.776 31.337c-1.339.779-1.332 1.614.013 2.392l68.253 39.47c1.345.779 2.787.779 4.125 0l44.076-25.656c13.769-8.013 14.746-17.343.99-25.296h.003zM45.906 41.802l-14.373-8.313c-1.345-.778-1.349-1.616-.014-2.391L70.767 8.253c1.335-.779 2.776-.775 4.121 0l14.374 8.312c1.345.778 1.352 1.613.016 2.392L50.031 41.802c-1.335.778-2.78.778-4.125 0zm65.756-1.676L79.505 58.843c-1.335.778-2.78.778-4.125 0L60.798 50.41c-1.346-.779-1.349-1.617-.014-2.392l32.157-18.717c5.855-3.41 12.66-3.287 18.14-.117l.206.12c6.104 3.53 6.23 7.414.372 10.824l.003-.003zM139.489 85.34l8.426-4.902c1.335-.779 2.059-2.03 2.062-3.576l.023-8.213c.007-2.381-.607-3.685-2.142-4.577l-11.982-6.929c-1.538-.884-2.972-.645-5.028.55l-29.899 17.403c-2.056 1.197-3.597 2.807-5.041 5.312L83.743 101.51c-1.441 2.505-2.066 4.647-2.073 7.029l-.076 26.544c-.07 24.874 12.746 27.399 29.7 17.529l9.963-5.801c17.468-10.168 28.597-27.814 28.65-47.214v-.12c.004-1.55-.714-1.962-2.049-1.184l-8.425 4.903c-1.339.779-2.059 2.026-2.063 3.576v1.071c-.029 9.876-4.466 18.165-14.635 24.083l-12.946 7.534c-10.378 6.041-15.698 1.773-15.668-9.417l.1-34.637c.003-1.547.727-2.8 2.062-3.576l39.145-22.785c1.335-.778 2.052-.362 2.049 1.184l-.04 13.928c-.004 1.546.711 1.962 2.049 1.184h.003zM54.827 80.64c-1.442-2.501-2.993-4.111-5.062-5.308L2.298 47.882C.953 47.105.226 47.518.222 49.064L0 127.621c-.003 1.547.717 2.801 2.062 3.576l36.714 21.232c19.544 11.303 30.022 5.322 30.088-17.177l.077-26.661c.006-2.381-.611-4.527-2.053-7.028L54.826 80.64zm1.414 49.939c-.033 11.545-5.43 14.742-15.562 8.884l-25.957-15.012c-1.345-.778-2.066-2.029-2.062-3.575l.143-50.464c.003-1.55.73-1.963 2.075-1.184l39.4 22.785c1.346.778 2.066 2.026 2.063 3.576l-.1 34.993v-.003z" fill="#fff" />
</svg>